Coordinates
version=1
nRows=9
nColumns=26
inDegrees=yes

Units are S.I. units (second, meters, Newtons, ...)
Angles are in degrees.

endheader
time	pelvis_tilt	pelvis_list	pelvis_rotation	pelvis_tx	pelvis_ty	pelvis_tz	hip_flexion_r	hip_adduction_r	hip_rotation_r	knee_angle_r	knee_angle_r_beta	ankle_angle_r	subtalar_angle_r	mtp_angle_r	hip_flexion_l	hip_adduction_l	hip_rotation_l	knee_angle_l	knee_angle_l_beta	ankle_angle_l	subtalar_angle_l	mtp_angle_l	lumbar_extension	lumbar_bending	lumbar_rotation
      1.22000000	    -13.14650576	     -0.70906649	      4.13559638	      0.48074008	      0.94998005	      0.35823932	     37.87110793	      0.75014578	     -7.25417374	     15.64439316	      0.27304617	     11.27821059	      0.00000000	      0.00000000	     -5.66510917	     -4.42612299	      5.98263103	     76.65519500	      1.33788554	    -11.47211367	      0.00000000	      0.00000000	      3.26108048	      2.35818894	    -24.33408075
      1.22400000	    -12.55002341	     -0.94147210	      3.89509485	      0.49595655	      0.94751378	      0.35825410	     37.04953315	      1.18512933	     -6.60072782	     16.85973925	      0.29425796	     10.85437671	      0.00000000	      0.00000000	     -5.40459739	     -4.89416664	      5.75551811	     79.08274012	      1.38025420	    -10.80359453	      0.00000000	      0.00000000	      2.40160859	      2.82802365	    -23.78154539
      1.22800000	    -12.14177583	     -1.21498690	      3.58306057	      0.51109733	      0.94447402	      0.35826656	     36.53589895	      1.64367240	     -6.15335402	     18.27379103	      0.31893782	     10.18124752	      0.00000000	      0.00000000	     -4.93414992	     -5.40041455	      5.39522644	     81.57927580	      1.42382696	     -9.86213881	      0.00000000	      0.00000000	      1.75365611	      3.34622572	    -23.06523230
      1.23200000	    -11.73930100	     -1.44168574	      3.31343503	      0.52626218	      0.94130286	      0.35824770	     36.04526091	      2.03545819	     -5.66253965	     19.76326114	      0.34493398	      9.14098703	      0.00000000	      0.00000000	     -4.44309968	     -5.85770317	      5.15318691	     84.01321414	      1.46630720	     -8.92152541	      0.00000000	      0.00000000	      1.12509432	      3.77628407	    -22.37659912
      1.23600000	    -11.44621538	     -1.64268353	      3.00796752	      0.54124157	      0.93782707	      0.35825427	     35.72725073	      2.39168234	     -5.31660569	     21.34802223	      0.37259328	      7.90843522	      0.00000000	      0.00000000	     -3.80503054	     -6.26549722	      4.91184794	     86.46137012	      1.50903558	     -7.89408338	      0.00000000	      0.00000000	      0.59100390	      4.17703113	    -21.65070363
      1.24000000	    -11.18153939	     -1.82882319	      2.75868237	      0.55607626	      0.93418106	      0.35827762	     35.47746055	      2.71353476	     -5.02083861	     22.98567292	      0.40117567	      6.77240615	      0.00000000	      0.00000000	     -3.07418362	     -6.67831878	      4.73709219	     88.88645488	      1.55136130	     -6.92785761	      0.00000000	      0.00000000	      0.08058996	      4.52919293	    -20.94660978
      1.24400000	    -10.98584645	     -2.01958319	      2.47253890	      0.57077988	      0.93033594	      0.35838827	     35.37733147	      3.06595246	     -4.70238232	     24.80310001	      0.43289576	      6.26755289	      0.00000000	      0.00000000	     -2.23500480	     -7.08889953	      4.57245436	     91.32473575	      1.59391733	     -5.86041038	      0.00000000	      0.00000000	     -0.37429654	      4.87171543	    -20.18255504
      1.24800000	    -10.99361677	     -2.18295842	      2.13690198	      0.58515415	      0.92614869	      0.35864915	     35.64524652	      3.42666029	     -4.42386474	     26.97641234	      0.47082722	      7.32144510	      0.00000000	      0.00000000	     -1.11184582	     -7.47860061	      4.39519474	     93.78973628	      1.63693970	     -4.78829279	      0.00000000	      0.00000000	     -0.62628140	      5.16436181	    -19.31479387
      1.25200000	    -11.00907233	     -2.43436160	      1.80354177	      0.59916792	      0.92207993	      0.35901654	     36.00554777	      3.91456042	     -4.23238917	     29.45202830	      0.51403487	      9.22235326	      0.00000000	      0.00000000	      0.10164568	     -7.96475021	      4.30408682	     96.24062042	      1.67971570	     -3.82072513	      0.00000000	      0.00000000	     -0.91613297	      5.52055908	    -18.51167450
